<?xml version="1.0" encoding="UTF-8" standalone="no"?>
<!DOCTYPE svg PUBLIC "-//W3C//DTD SVG 1.1//EN" "http://www.w3.org/Graphics/SVG/1.1/DTD/svg11.dtd">
<svg width="100%" height="100%" viewBox="0 0 50 50" version="1.1" xmlns="http://www.w3.org/2000/svg" xmlns:xlink="http://www.w3.org/1999/xlink" xml:space="preserve" xmlns:serif="http://www.serif.com/" style="fill-rule:evenodd;clip-rule:evenodd;stroke-linejoin:round;stroke-miterlimit:1.41421;">
    <g transform="matrix(0.989172,0,0,1,0.541396,0)">
        <rect x="-0.547" y="0" width="50.547" height="50" style="fill:url(#_Linear1);"/>
    </g>
    <g transform="matrix(0.469078,0.469078,-0.670782,0.670782,36.3473,-0.285459)">
        <path d="M11.587,37.29C12.246,36.642 12.594,35.865 12.581,35.069C12.53,31.618 12.403,23.515 12.403,23.515C12.403,22.046 11.054,20.776 9.988,19.766C8.895,18.75 8.214,17.299 8.214,15.689C8.214,15.098 8.214,14.707 8.214,14.707C8.214,14.707 8.214,3.922 8.214,3.922C8.214,3.576 8.495,3.295 8.84,3.295L10.094,3.295C10.44,3.295 10.72,3.576 10.72,3.922C10.72,3.922 10.72,11.16 10.72,13.777C10.72,14.024 10.818,14.261 10.993,14.435C11.167,14.609 11.404,14.707 11.65,14.707C11.651,14.707 11.652,14.707 11.652,14.707C11.899,14.707 12.135,14.609 12.31,14.435C12.484,14.261 12.582,14.024 12.582,13.777C12.582,11.16 12.582,3.922 12.582,3.922C12.582,3.576 12.863,3.295 13.209,3.295L14.462,3.295C14.808,3.295 15.089,3.576 15.089,3.922C15.089,3.922 15.089,11.199 15.089,13.798C15.089,14.3 15.496,14.707 15.998,14.707C15.998,14.707 15.999,14.707 15.999,14.707C16.501,14.707 16.908,14.3 16.908,13.798C16.908,11.199 16.908,3.922 16.908,3.922C16.908,3.576 17.189,3.295 17.535,3.295L18.788,3.295C19.134,3.295 19.415,3.576 19.415,3.922C19.415,3.922 19.415,10.598 19.415,15.669C19.415,17.338 18.686,18.837 17.53,19.864C16.545,20.755 15.44,22.118 15.44,23.445C15.434,25.655 15.685,31.139 15.752,34.878C15.759,35.752 16.147,36.604 16.863,37.32C16.863,37.32 16.863,37.32 16.863,37.32C17.406,37.863 17.711,38.599 17.711,39.367C17.711,42.535 17.711,47.485 17.711,49.917C17.711,50.295 17.491,50.658 17.101,50.921C16.712,51.184 16.186,51.325 15.645,51.311C14.616,51.286 13.382,51.256 12.386,51.231C11.356,51.206 10.541,50.615 10.541,49.895C10.541,47.664 10.541,43.016 10.541,39.779C10.541,38.855 10.908,37.969 11.561,37.315C11.57,37.307 11.578,37.298 11.587,37.29Z" style="fill:rgb(235,235,235);"/>
    </g>
    <g transform="matrix(0.605919,-0.605919,0.670782,0.670782,-14.5935,29.7098)">
        <path d="M34.526,27.961C34.282,27.37 33.657,26.978 32.959,26.978C32.842,26.882 32.766,26.882 32.766,26.882C32.435,26.882 32.117,26.75 31.882,26.516C31.648,26.281 31.516,25.963 31.516,25.631C31.516,22.609 31.516,14.714 31.516,8.729C31.516,6.758 32.299,4.867 33.693,3.473C35.087,2.079 36.978,1.295 38.95,1.295C38.95,1.295 38.951,1.295 38.951,1.295C39.02,1.295 39.087,1.323 39.136,1.372C39.184,1.421 39.212,1.487 39.212,1.556L39.212,48.236C39.212,48.535 39.093,48.821 38.882,49.033C38.671,49.244 38.384,49.362 38.086,49.362C37.36,49.362 36.413,49.362 35.647,49.362C35.287,49.362 34.943,49.22 34.689,48.966C34.435,48.712 34.301,48.367 34.292,48.008C34.168,42.728 33.731,36.053 34.164,32.282C34.358,30.599 34.541,28.989 34.526,27.961Z" style="fill:rgb(235,235,235);"/>
    </g>
    <defs>
        <linearGradient id="_Linear1" x1="0" y1="0" x2="1" y2="0" gradientUnits="userSpaceOnUse" gradientTransform="matrix(47.6922,46.4525,-46.961,47.1758,-14.4297,-13.7175)"><stop offset="0" style="stop-color:rgb(223,251,255);stop-opacity:1"/><stop offset="1" style="stop-color:rgb(14,88,150);stop-opacity:1"/></linearGradient>
    </defs>
</svg>
