<?xml version="1.0" encoding="UTF-8" standalone="no"?>
<!DOCTYPE svg PUBLIC "-//W3C//DTD SVG 1.1//EN" "http://www.w3.org/Graphics/SVG/1.1/DTD/svg11.dtd">
<svg width="100%" height="100%" viewBox="0 0 50 50" version="1.1" xmlns="http://www.w3.org/2000/svg" xmlns:xlink="http://www.w3.org/1999/xlink" xml:space="preserve" xmlns:serif="http://www.serif.com/" style="fill-rule:evenodd;clip-rule:evenodd;stroke-linejoin:round;stroke-miterlimit:1.41421;">
    <path d="M25,0C38.798,0 50,11.202 50,25C50,38.798 38.798,50 25,50C11.202,50 0,38.798 0,25C0,11.202 11.202,0 25,0ZM25.228,4.09C34.627,4.18 43.569,11.224 45.614,20.607C47.698,30.171 42.14,40.815 33.029,44.541C22.415,48.88 8.627,42.874 5.035,31.335C1.224,19.093 10.817,4.401 24.686,4.094C24.867,4.091 25.047,4.09 25.228,4.09ZM24.969,6.09C16.435,6.171 8.374,12.549 6.525,21.033C4.642,29.674 9.668,39.318 17.912,42.689C27.613,46.656 40.186,41.001 43.308,30.517C46.57,19.56 38.069,6.531 25.704,6.099C25.459,6.092 25.214,6.089 24.969,6.09ZM16.753,40.638C16.733,40.631 16.714,40.623 16.695,40.613C16.073,40.29 16.596,37.978 17.339,36.338C17.4,36.202 20.36,29.539 23.057,23.465C23.142,23.275 23.085,23.065 22.931,22.995C22.931,22.995 22.93,22.994 22.93,22.994C22.734,22.905 22.589,22.724 22.527,22.491C22.465,22.257 22.492,21.991 22.601,21.749C23.674,19.38 26.553,13.018 27.762,10.347C27.907,10.027 28.15,9.767 28.436,9.624C28.693,9.496 28.966,9.471 29.207,9.552C29.207,9.552 29.315,9.314 29.441,9.034C29.664,8.542 30.243,8.324 30.734,8.547C31.705,8.986 33.232,9.677 34.059,10.052C34.213,10.121 34.333,10.249 34.392,10.408C34.452,10.566 34.446,10.741 34.377,10.895C33.5,12.831 30.672,19.08 29.587,21.476C29.474,21.727 29.265,21.922 29.007,22.019C28.749,22.117 28.463,22.107 28.212,21.994C28.212,21.994 28.212,21.994 28.212,21.994C28.212,21.994 31.664,14.368 32.613,12.271C32.745,11.979 32.616,11.635 32.324,11.503C32.324,11.503 32.324,11.503 32.324,11.503L26.674,23.984C26.604,24.139 26.486,24.265 26.347,24.335C26.208,24.404 26.059,24.411 25.933,24.353C25.933,24.353 25.933,24.353 25.932,24.353C25.806,24.296 25.657,24.303 25.518,24.372C25.379,24.442 25.261,24.568 25.191,24.723C24.037,27.272 19.509,37.276 19.509,37.276C18.935,38.544 18.105,39.989 17.39,40.487C18.89,40.214 21.973,40.026 25.529,40.026C30.557,40.026 34.639,40.401 34.639,40.863C34.639,41.326 30.557,41.701 25.529,41.701C20.501,41.701 16.419,41.326 16.419,40.863C16.419,40.785 16.535,40.71 16.753,40.638Z" style="fill:url(#_Linear1);"/>
    <defs>
        <linearGradient id="_Linear1" x1="0" y1="0" x2="1" y2="0" gradientUnits="userSpaceOnUse" gradientTransform="matrix(28.7184,28.7184,-28.7184,28.7184,0,-1.11022e-14)"><stop offset="0" style="stop-color:rgb(223,251,255);stop-opacity:1"/><stop offset="1" style="stop-color:rgb(14,88,150);stop-opacity:1"/></linearGradient>
    </defs>
</svg>
