<?xml version="1.0" encoding="UTF-8" standalone="no"?><!DOCTYPE svg PUBLIC "-//W3C//DTD SVG 1.1//EN" "http://www.w3.org/Graphics/SVG/1.1/DTD/svg11.dtd"><svg width="100%" height="100%" viewBox="0 0 20 20" version="1.1" xmlns="http://www.w3.org/2000/svg" xmlns:xlink="http://www.w3.org/1999/xlink" xml:space="preserve" xmlns:serif="http://www.serif.com/" style="fill-rule:evenodd;clip-rule:evenodd;stroke-linejoin:round;stroke-miterlimit:1.41421;"><path d="M10.129,0.001l0.129,0.002l0.128,0.004l0.128,0.006l0.128,0.007l0.127,0.009l0.127,0.011l0.126,0.012l0.126,0.013l0.125,0.015l0.125,0.017l0.124,0.018l0.124,0.02l0.123,0.021l0.123,0.023l0.122,0.024l0.122,0.026l0.121,0.027l0.121,0.029l0.12,0.03l0.119,0.032l0.119,0.033l0.119,0.034l0.117,0.036l0.117,0.037l0.117,0.039l0.116,0.04l0.115,0.041l0.114,0.043l0.114,0.044l0.113,0.046l0.113,0.046l0.112,0.048l0.111,0.05l0.11,0.051l0.11,0.052l0.109,0.053l0.108,0.055l0.107,0.056l0.107,0.057l0.106,0.058l0.105,0.06l0.104,0.061l0.104,0.062l0.102,0.063l0.102,0.064l0.101,0.066l0.1,0.067l0.1,0.068l0.098,0.069l0.098,0.07l0.097,0.072l0.095,0.072l0.095,0.074l0.094,0.075l0.093,0.076l0.093,0.077l0.091,0.078l0.09,0.079l0.089,0.08l0.089,0.081l0.087,0.083l0.086,0.083l0.086,0.084l0.084,0.086l0.083,0.086l0.083,0.087l0.081,0.089l0.08,0.089l0.079,0.09l0.078,0.091l0.077,0.093l0.076,0.093l0.075,0.094l0.074,0.095l0.072,0.095l0.072,0.097l0.07,0.098l0.069,0.098l0.068,0.1l0.067,0.1l0.066,0.101l0.064,0.102l0.063,0.102l0.062,0.104l0.061,0.104l0.06,0.105l0.058,0.106l0.057,0.107l0.056,0.107l0.055,0.108l0.053,0.109l0.052,0.11l0.051,0.11l0.05,0.111l0.048,0.112l0.046,0.113l0.046,0.113l0.044,0.114l0.043,0.114l0.041,0.115l0.04,0.116l0.039,0.117l0.037,0.117l0.036,0.117l0.034,0.119l0.033,0.119l0.032,0.119l0.03,0.12l0.029,0.121l0.027,0.121l0.026,0.122l0.024,0.122l0.023,0.123l0.021,0.123l0.02,0.124l0.018,0.124l0.017,0.125l0.015,0.125l0.013,0.126l0.012,0.126l0.011,0.127l0.009,0.127l0.007,0.128l0.006,0.128l0.004,0.128l0.002,0.129l0.001,0.129l-0.001,0.129l-0.002,0.129l-0.004,0.128l-0.006,0.128l-0.007,0.128l-0.009,0.127l-0.011,0.127l-0.012,0.126l-0.013,0.126l-0.015,0.125l-0.017,0.125l-0.018,0.124l-0.02,0.124l-0.021,0.123l-0.023,0.123l-0.024,0.122l-0.026,0.122l-0.027,0.121l-0.029,0.121l-0.03,0.12l-0.032,0.119l-0.033,0.119l-0.034,0.119l-0.036,0.117l-0.037,0.117l-0.039,0.117l-0.04,0.116l-0.041,0.115l-0.043,0.114l-0.044,0.114l-0.046,0.113l-0.046,0.113l-0.048,0.112l-0.05,0.111l-0.051,0.11l-0.052,0.11l-0.053,0.109l-0.055,0.108l-0.056,0.107l-0.057,0.107l-0.058,0.106l-0.06,0.105l-0.061,0.104l-0.062,0.104l-0.063,0.102l-0.064,0.102l-0.066,0.101l-0.067,0.1l-0.068,0.1l-0.069,0.098l-0.07,0.098l-0.072,0.097l-0.072,0.095l-0.074,0.095l-0.075,0.094l-0.076,0.093l-0.077,0.093l-0.078,0.091l-0.079,0.09l-0.08,0.089l-0.081,0.089l-0.083,0.087l-0.083,0.086l-0.084,0.086l-0.086,0.084l-0.086,0.083l-0.087,0.083l-0.089,0.081l-0.089,0.08l-0.09,0.079l-0.091,0.078l-0.093,0.077l-0.093,0.076l-0.094,0.075l-0.095,0.074l-0.095,0.072l-0.097,0.072l-0.098,0.07l-0.098,0.069l-0.1,0.068l-0.1,0.067l-0.101,0.066l-0.102,0.064l-0.102,0.063l-0.104,0.062l-0.104,0.061l-0.105,0.06l-0.106,0.058l-0.107,0.057l-0.107,0.056l-0.108,0.055l-0.109,0.053l-0.11,0.052l-0.11,0.051l-0.111,0.05l-0.112,0.048l-0.113,0.046l-0.113,0.046l-0.114,0.044l-0.114,0.043l-0.115,0.041l-0.116,0.04l-0.117,0.039l-0.117,0.037l-0.117,0.036l-0.119,0.034l-0.119,0.033l-0.119,0.032l-0.12,0.03l-0.121,0.029l-0.121,0.027l-0.122,0.026l-0.122,0.024l-0.123,0.023l-0.123,0.021l-0.124,0.02l-0.124,0.018l-0.125,0.017l-0.125,0.015l-0.126,0.013l-0.126,0.012l-0.127,0.011l-0.127,0.009l-0.128,0.007l-0.128,0.006l-0.128,0.004l-0.129,0.002l-0.129,0.001l-0.129,-0.001l-0.129,-0.002l-0.128,-0.004l-0.128,-0.006l-0.128,-0.007l-0.127,-0.009l-0.127,-0.011l-0.126,-0.012l-0.126,-0.013l-0.125,-0.015l-0.125,-0.017l-0.124,-0.018l-0.124,-0.02l-0.123,-0.021l-0.123,-0.023l-0.122,-0.024l-0.122,-0.026l-0.121,-0.027l-0.121,-0.029l-0.12,-0.03l-0.119,-0.032l-0.119,-0.033l-0.119,-0.034l-0.117,-0.036l-0.117,-0.037l-0.117,-0.039l-0.116,-0.04l-0.115,-0.041l-0.114,-0.043l-0.114,-0.044l-0.113,-0.046l-0.113,-0.046l-0.112,-0.048l-0.111,-0.05l-0.11,-0.051l-0.11,-0.052l-0.109,-0.053l-0.108,-0.055l-0.107,-0.056l-0.107,-0.057l-0.106,-0.058l-0.105,-0.06l-0.104,-0.061l-0.104,-0.062l-0.102,-0.063l-0.102,-0.064l-0.101,-0.066l-0.1,-0.067l-0.1,-0.068l-0.098,-0.069l-0.098,-0.07l-0.097,-0.072l-0.095,-0.072l-0.095,-0.074l-0.094,-0.075l-0.093,-0.076l-0.093,-0.077l-0.091,-0.078l-0.09,-0.079l-0.089,-0.08l-0.089,-0.081l-0.087,-0.083l-0.086,-0.083l-0.086,-0.084l-0.084,-0.086l-0.083,-0.086l-0.083,-0.087l-0.081,-0.089l-0.08,-0.089l-0.079,-0.09l-0.078,-0.091l-0.077,-0.093l-0.076,-0.093l-0.075,-0.094l-0.074,-0.095l-0.072,-0.095l-0.072,-0.097l-0.07,-0.098l-0.069,-0.098l-0.068,-0.1l-0.067,-0.1l-0.066,-0.101l-0.064,-0.102l-0.063,-0.102l-0.062,-0.104l-0.061,-0.104l-0.06,-0.105l-0.058,-0.106l-0.057,-0.107l-0.056,-0.107l-0.055,-0.108l-0.053,-0.109l-0.052,-0.11l-0.051,-0.11l-0.05,-0.111l-0.048,-0.112l-0.046,-0.113l-0.046,-0.113l-0.044,-0.114l-0.043,-0.114l-0.041,-0.115l-0.04,-0.116l-0.039,-0.117l-0.037,-0.117l-0.036,-0.117l-0.034,-0.119l-0.033,-0.119l-0.032,-0.119l-0.03,-0.12l-0.029,-0.121l-0.027,-0.121l-0.026,-0.122l-0.024,-0.122l-0.023,-0.123l-0.021,-0.123l-0.02,-0.124l-0.018,-0.124l-0.017,-0.125l-0.015,-0.125l-0.013,-0.126l-0.012,-0.126l-0.011,-0.127l-0.009,-0.127l-0.007,-0.128l-0.006,-0.128l-0.004,-0.128l-0.002,-0.129l-0.001,-0.129l0.001,-0.129l0.002,-0.129l0.004,-0.128l0.006,-0.128l0.007,-0.128l0.009,-0.127l0.011,-0.127l0.012,-0.126l0.013,-0.126l0.015,-0.125l0.017,-0.125l0.018,-0.124l0.02,-0.124l0.021,-0.123l0.023,-0.123l0.024,-0.122l0.026,-0.122l0.027,-0.121l0.029,-0.121l0.03,-0.12l0.032,-0.119l0.033,-0.119l0.034,-0.119l0.036,-0.117l0.037,-0.117l0.039,-0.117l0.04,-0.116l0.041,-0.115l0.043,-0.114l0.044,-0.114l0.046,-0.113l0.046,-0.113l0.048,-0.112l0.05,-0.111l0.051,-0.11l0.052,-0.11l0.053,-0.109l0.055,-0.108l0.056,-0.107l0.057,-0.107l0.058,-0.106l0.06,-0.105l0.061,-0.104l0.062,-0.104l0.063,-0.102l0.064,-0.102l0.066,-0.101l0.067,-0.1l0.068,-0.1l0.069,-0.098l0.07,-0.098l0.072,-0.097l0.072,-0.095l0.074,-0.095l0.075,-0.094l0.076,-0.093l0.077,-0.093l0.078,-0.091l0.079,-0.09l0.08,-0.089l0.081,-0.089l0.083,-0.087l0.083,-0.086l0.084,-0.086l0.086,-0.084l0.086,-0.083l0.087,-0.083l0.089,-0.081l0.089,-0.08l0.09,-0.079l0.091,-0.078l0.093,-0.077l0.093,-0.076l0.094,-0.075l0.095,-0.074l0.095,-0.072l0.097,-0.072l0.098,-0.07l0.098,-0.069l0.1,-0.068l0.1,-0.067l0.101,-0.066l0.102,-0.064l0.102,-0.063l0.104,-0.062l0.104,-0.061l0.105,-0.06l0.106,-0.058l0.107,-0.057l0.107,-0.056l0.108,-0.055l0.109,-0.053l0.11,-0.052l0.11,-0.051l0.111,-0.05l0.112,-0.048l0.113,-0.046l0.113,-0.046l0.114,-0.044l0.114,-0.043l0.115,-0.041l0.116,-0.04l0.117,-0.039l0.117,-0.037l0.117,-0.036l0.119,-0.034l0.119,-0.033l0.119,-0.032l0.12,-0.03l0.121,-0.029l0.121,-0.027l0.122,-0.026l0.122,-0.024l0.123,-0.023l0.123,-0.021l0.124,-0.02l0.124,-0.018l0.125,-0.017l0.125,-0.015l0.126,-0.013l0.126,-0.012l0.127,-0.011l0.127,-0.009l0.128,-0.007l0.128,-0.006l0.128,-0.004l0.129,-0.002l0.129,-0.001l0.129,0.001Zm-0.245,1l-0.117,0.002l-0.115,0.004l-0.116,0.005l-0.114,0.006l-0.115,0.008l-0.114,0.01l-0.114,0.011l-0.113,0.012l-0.113,0.013l-0.112,0.015l-0.112,0.017l-0.111,0.018l-0.111,0.019l-0.111,0.02l-0.11,0.022l-0.109,0.023l-0.109,0.025l-0.109,0.025l-0.108,0.027l-0.107,0.029l-0.107,0.03l-0.106,0.03l-0.106,0.033l-0.105,0.033l-0.105,0.035l-0.104,0.036l-0.104,0.037l-0.103,0.039l-0.102,0.039l-0.102,0.041l-0.101,0.042l-0.101,0.044l-0.1,0.044l-0.099,0.046l-0.098,0.047l-0.098,0.048l-0.098,0.049l-0.096,0.05l-0.096,0.051l-0.096,0.053l-0.094,0.054l-0.094,0.054l-0.093,0.056l-0.093,0.057l-0.091,0.058l-0.091,0.059l-0.091,0.06l-0.089,0.062l-0.089,0.062l-0.087,0.063l-0.088,0.064l-0.086,0.066l-0.085,0.066l-0.085,0.068l-0.084,0.068l-0.083,0.069l-0.082,0.071l-0.081,0.071l-0.081,0.072l-0.079,0.073l-0.079,0.074l-0.078,0.075l-0.077,0.076l-0.076,0.077l-0.075,0.078l-0.074,0.079l-0.073,0.079l-0.072,0.081l-0.071,0.081l-0.071,0.082l-0.069,0.083l-0.068,0.084l-0.068,0.085l-0.066,0.085l-0.066,0.086l-0.064,0.088l-0.063,0.087l-0.062,0.089l-0.062,0.089l-0.06,0.091l-0.059,0.091l-0.058,0.091l-0.057,0.093l-0.056,0.093l-0.054,0.094l-0.054,0.094l-0.053,0.096l-0.051,0.096l-0.05,0.096l-0.049,0.098l-0.048,0.098l-0.047,0.098l-0.046,0.099l-0.044,0.1l-0.044,0.101l-0.042,0.101l-0.041,0.102l-0.039,0.102l-0.039,0.103l-0.037,0.104l-0.036,0.104l-0.035,0.105l-0.033,0.105l-0.033,0.106l-0.03,0.106l-0.03,0.107l-0.029,0.107l-0.027,0.108l-0.025,0.109l-0.025,0.109l-0.023,0.109l-0.022,0.11l-0.02,0.111l-0.019,0.111l-0.018,0.111l-0.017,0.112l-0.015,0.112l-0.013,0.113l-0.012,0.113l-0.011,0.114l-0.01,0.114l-0.008,0.115l-0.006,0.114l-0.005,0.116l-0.004,0.115l-0.002,0.117l-0.001,0.116l0.001,0.116l0.002,0.117l0.004,0.115l0.005,0.116l0.006,0.114l0.008,0.115l0.01,0.114l0.011,0.114l0.012,0.113l0.013,0.113l0.015,0.112l0.017,0.112l0.018,0.111l0.019,0.111l0.02,0.111l0.022,0.11l0.023,0.109l0.025,0.109l0.025,0.109l0.027,0.108l0.029,0.107l0.03,0.107l0.03,0.106l0.033,0.106l0.033,0.105l0.035,0.105l0.036,0.104l0.037,0.104l0.039,0.103l0.039,0.102l0.041,0.102l0.042,0.101l0.044,0.101l0.044,0.1l0.046,0.099l0.047,0.098l0.048,0.098l0.049,0.098l0.05,0.096l0.051,0.096l0.053,0.096l0.054,0.094l0.054,0.094l0.056,0.093l0.057,0.093l0.058,0.091l0.059,0.091l0.06,0.091l0.062,0.089l0.062,0.089l0.063,0.087l0.064,0.088l0.066,0.086l0.066,0.085l0.068,0.085l0.068,0.084l0.069,0.083l0.071,0.082l0.071,0.081l0.072,0.081l0.073,0.079l0.074,0.079l0.075,0.078l0.076,0.077l0.077,0.076l0.078,0.075l0.079,0.074l0.079,0.073l0.081,0.072l0.081,0.071l0.082,0.071l0.083,0.069l0.084,0.068l0.085,0.068l0.085,0.066l0.086,0.066l0.088,0.064l0.087,0.063l0.089,0.062l0.089,0.062l0.091,0.06l0.091,0.059l0.091,0.058l0.093,0.057l0.093,0.056l0.094,0.054l0.094,0.054l0.096,0.053l0.096,0.051l0.096,0.05l0.098,0.049l0.098,0.048l0.098,0.047l0.099,0.046l0.1,0.044l0.101,0.044l0.101,0.042l0.102,0.041l0.102,0.039l0.103,0.039l0.104,0.037l0.104,0.036l0.105,0.035l0.105,0.033l0.106,0.033l0.106,0.03l0.107,0.03l0.107,0.029l0.108,0.027l0.109,0.025l0.109,0.025l0.109,0.023l0.11,0.022l0.111,0.02l0.111,0.019l0.111,0.018l0.112,0.017l0.112,0.015l0.113,0.013l0.113,0.012l0.114,0.011l0.114,0.01l0.115,0.008l0.114,0.006l0.116,0.005l0.115,0.004l0.117,0.002l0.116,0.001l0.116,-0.001l0.117,-0.002l0.115,-0.004l0.116,-0.005l0.114,-0.006l0.115,-0.008l0.114,-0.01l0.114,-0.011l0.113,-0.012l0.113,-0.013l0.112,-0.015l0.112,-0.017l0.111,-0.018l0.111,-0.019l0.111,-0.02l0.11,-0.022l0.109,-0.023l0.109,-0.025l0.109,-0.025l0.108,-0.027l0.107,-0.029l0.107,-0.03l0.106,-0.03l0.106,-0.033l0.105,-0.033l0.105,-0.035l0.104,-0.036l0.104,-0.037l0.103,-0.039l0.102,-0.039l0.102,-0.041l0.101,-0.042l0.101,-0.044l0.1,-0.044l0.099,-0.046l0.098,-0.047l0.098,-0.048l0.098,-0.049l0.096,-0.05l0.096,-0.051l0.096,-0.053l0.094,-0.054l0.094,-0.054l0.093,-0.056l0.093,-0.057l0.091,-0.058l0.091,-0.059l0.091,-0.06l0.089,-0.062l0.089,-0.062l0.087,-0.063l0.088,-0.064l0.086,-0.066l0.085,-0.066l0.085,-0.068l0.084,-0.068l0.083,-0.069l0.082,-0.071l0.081,-0.071l0.081,-0.072l0.079,-0.073l0.079,-0.074l0.078,-0.075l0.077,-0.076l0.076,-0.077l0.075,-0.078l0.074,-0.079l0.073,-0.079l0.072,-0.081l0.071,-0.081l0.071,-0.082l0.069,-0.083l0.068,-0.084l0.068,-0.085l0.066,-0.085l0.066,-0.086l0.064,-0.088l0.063,-0.087l0.062,-0.089l0.062,-0.089l0.06,-0.091l0.059,-0.091l0.058,-0.091l0.057,-0.093l0.056,-0.093l0.054,-0.094l0.054,-0.094l0.053,-0.096l0.051,-0.096l0.05,-0.096l0.049,-0.098l0.048,-0.098l0.047,-0.098l0.046,-0.099l0.044,-0.1l0.044,-0.101l0.042,-0.101l0.041,-0.102l0.039,-0.102l0.039,-0.103l0.037,-0.104l0.036,-0.104l0.035,-0.105l0.033,-0.105l0.033,-0.106l0.03,-0.106l0.03,-0.107l0.029,-0.107l0.027,-0.108l0.025,-0.109l0.025,-0.109l0.023,-0.109l0.022,-0.11l0.02,-0.111l0.019,-0.111l0.018,-0.111l0.017,-0.112l0.015,-0.112l0.013,-0.113l0.012,-0.113l0.011,-0.114l0.01,-0.114l0.008,-0.115l0.006,-0.114l0.005,-0.116l0.004,-0.115l0.002,-0.117l0.001,-0.116l-0.001,-0.116l-0.002,-0.117l-0.004,-0.115l-0.005,-0.116l-0.006,-0.114l-0.008,-0.115l-0.01,-0.114l-0.011,-0.114l-0.012,-0.113l-0.013,-0.113l-0.015,-0.112l-0.017,-0.112l-0.018,-0.111l-0.019,-0.111l-0.02,-0.111l-0.022,-0.11l-0.023,-0.109l-0.025,-0.109l-0.025,-0.109l-0.027,-0.108l-0.029,-0.107l-0.03,-0.107l-0.03,-0.106l-0.033,-0.106l-0.033,-0.105l-0.035,-0.105l-0.036,-0.104l-0.037,-0.104l-0.039,-0.103l-0.039,-0.102l-0.041,-0.102l-0.042,-0.101l-0.044,-0.101l-0.044,-0.1l-0.046,-0.099l-0.047,-0.098l-0.048,-0.098l-0.049,-0.098l-0.05,-0.096l-0.051,-0.096l-0.053,-0.096l-0.054,-0.094l-0.054,-0.094l-0.056,-0.093l-0.057,-0.093l-0.058,-0.091l-0.059,-0.091l-0.06,-0.091l-0.062,-0.089l-0.062,-0.089l-0.063,-0.087l-0.064,-0.088l-0.066,-0.086l-0.066,-0.085l-0.068,-0.085l-0.068,-0.084l-0.069,-0.083l-0.071,-0.082l-0.071,-0.081l-0.072,-0.081l-0.073,-0.079l-0.074,-0.079l-0.075,-0.078l-0.076,-0.077l-0.077,-0.076l-0.078,-0.075l-0.079,-0.074l-0.079,-0.073l-0.081,-0.072l-0.081,-0.071l-0.082,-0.071l-0.083,-0.069l-0.084,-0.068l-0.085,-0.068l-0.085,-0.066l-0.086,-0.066l-0.088,-0.064l-0.087,-0.063l-0.089,-0.062l-0.089,-0.062l-0.091,-0.06l-0.091,-0.059l-0.091,-0.058l-0.093,-0.057l-0.093,-0.056l-0.094,-0.054l-0.094,-0.054l-0.096,-0.053l-0.096,-0.051l-0.096,-0.05l-0.098,-0.049l-0.098,-0.048l-0.098,-0.047l-0.099,-0.046l-0.1,-0.044l-0.101,-0.044l-0.101,-0.042l-0.102,-0.041l-0.102,-0.039l-0.103,-0.039l-0.104,-0.037l-0.104,-0.036l-0.105,-0.035l-0.105,-0.033l-0.106,-0.033l-0.106,-0.03l-0.107,-0.03l-0.107,-0.029l-0.108,-0.027l-0.109,-0.025l-0.109,-0.025l-0.109,-0.023l-0.11,-0.022l-0.111,-0.02l-0.111,-0.019l-0.111,-0.018l-0.112,-0.017l-0.112,-0.015l-0.113,-0.013l-0.113,-0.012l-0.114,-0.011l-0.114,-0.01l-0.115,-0.008l-0.114,-0.006l-0.116,-0.005l-0.115,-0.004l-0.117,-0.002l-0.116,-0.001l-0.116,0.001Z" style="fill:#4e5887;fill-opacity:0.65635;"/><g><path d="M10.046,5.608c0.267,0.019 0.518,0.111 0.735,0.273l6.742,5.393c0.996,0.851 -0.142,3.013 -1.562,1.952c0,0 -3.428,-2.742 -5.088,-4.07c-0.516,-0.412 -1.247,-0.415 -1.767,-0.008c-1.691,1.327 -5.212,4.089 -5.212,4.089c-1.062,0.677 -2.835,-0.875 -1.478,-2.015l6.812,-5.348c0.235,-0.172 0.335,-0.268 0.818,-0.266Z" style="fill:#4e5887;fill-opacity:0.65635;fill-rule:nonzero;"/><path d="M10.063,5.409l0.053,0.005l0.057,0.007l0.056,0.009l0.056,0.01l0.055,0.013l0.054,0.015l0.054,0.017l0.054,0.018l0.052,0.021l0.052,0.023l0.052,0.024l0.05,0.026l0.049,0.029l0.049,0.03l0.048,0.032l0.048,0.034l6.749,5.398l0.029,0.025l0.026,0.025l0.026,0.025l0.024,0.026l0.024,0.026l0.023,0.027l0.022,0.027l0.021,0.028l0.02,0.028l0.019,0.028l0.019,0.029l0.017,0.03l0.017,0.029l0.016,0.03l0.015,0.031l0.014,0.032l0.025,0.06l0.023,0.063l0.019,0.064l0.016,0.065l0.012,0.065l0.01,0.065l0.007,0.066l0.004,0.066l0.001,0.066l-0.002,0.066l-0.005,0.065l-0.007,0.066l-0.009,0.065l-0.012,0.065l-0.015,0.064l-0.017,0.064l-0.019,0.063l-0.022,0.062l-0.024,0.061l-0.026,0.06l-0.029,0.06l-0.03,0.058l-0.033,0.056l-0.035,0.056l-0.037,0.054l-0.039,0.052l-0.041,0.051l-0.043,0.049l-0.045,0.047l-0.047,0.045l-0.049,0.043l-0.051,0.04l-0.053,0.039l-0.055,0.035l-0.057,0.033l-0.058,0.03l-0.059,0.027l-0.032,0.012l-0.032,0.012l-0.031,0.01l-0.032,0.01l-0.032,0.009l-0.033,0.008l-0.033,0.007l-0.034,0.006l-0.033,0.006l-0.034,0.004l-0.035,0.003l-0.034,0.002l-0.035,0.002l-0.035,0l-0.035,-0.001l-0.036,-0.002l-0.036,-0.003l-0.035,-0.004l-0.037,-0.005l-0.036,-0.006l-0.036,-0.008l-0.036,-0.008l-0.037,-0.01l-0.036,-0.01l-0.037,-0.012l-0.037,-0.013l-0.036,-0.014l-0.037,-0.015l-0.037,-0.017l-0.037,-0.017l-0.036,-0.019l-0.037,-0.02l-0.037,-0.021l-0.037,-0.022l-0.036,-0.023l-0.037,-0.024l-0.037,-0.026l-0.038,-0.028l-5.09,-4.071l-0.044,-0.034l-0.043,-0.03l-0.044,-0.028l-0.045,-0.026l-0.046,-0.024l-0.046,-0.022l-0.048,-0.02l-0.047,-0.017l-0.049,-0.016l-0.049,-0.014l-0.049,-0.011l-0.049,-0.01l-0.05,-0.007l-0.05,-0.006l-0.051,-0.003l-0.05,-0.001l-0.05,0.001l-0.051,0.002l-0.05,0.005l-0.05,0.007l-0.049,0.009l-0.05,0.012l-0.049,0.013l-0.048,0.015l-0.048,0.017l-0.047,0.02l-0.047,0.021l-0.046,0.024l-0.045,0.025l-0.045,0.028l-0.043,0.03l-0.044,0.033l-5.21,4.088l-0.019,0.012l-0.027,0.017l-0.03,0.018l-0.031,0.016l-0.03,0.016l-0.031,0.014l-0.032,0.014l-0.031,0.013l-0.032,0.012l-0.032,0.011l-0.033,0.01l-0.063,0.017l-0.065,0.014l-0.065,0.011l-0.065,0.007l-0.066,0.004l-0.065,0.001l-0.065,-0.002l-0.065,-0.005l-0.064,-0.008l-0.064,-0.011l-0.064,-0.013l-0.063,-0.016l-0.062,-0.018l-0.061,-0.021l-0.061,-0.023l-0.059,-0.026l-0.059,-0.027l-0.058,-0.03l-0.056,-0.032l-0.055,-0.034l-0.054,-0.036l-0.052,-0.038l-0.051,-0.04l-0.05,-0.041l-0.048,-0.044l-0.046,-0.045l-0.044,-0.046l-0.042,-0.049l-0.041,-0.05l-0.038,-0.051l-0.036,-0.053l-0.034,-0.055l-0.031,-0.056l-0.029,-0.057l-0.026,-0.059l-0.024,-0.06l-0.02,-0.061l-0.018,-0.062l-0.014,-0.064l-0.01,-0.062l-0.005,-0.034l-0.003,-0.033l-0.002,-0.033l-0.002,-0.033l0,-0.033l0,-0.033l0.002,-0.034l0.002,-0.033l0.003,-0.034l0.005,-0.034l0.005,-0.033l0.006,-0.034l0.008,-0.034l0.008,-0.034l0.01,-0.034l0.01,-0.033l0.012,-0.034l0.012,-0.033l0.014,-0.034l0.015,-0.033l0.016,-0.034l0.017,-0.033l0.018,-0.033l0.019,-0.032l0.02,-0.033l0.021,-0.032l0.022,-0.032l0.024,-0.032l0.024,-0.032l0.026,-0.032l0.026,-0.031l0.028,-0.031l0.029,-0.031l0.03,-0.03l0.031,-0.031l0.032,-0.03l0.033,-0.029l0.036,-0.031l6.818,-5.353l0.086,-0.063l0.041,-0.03l0.043,-0.029l0.044,-0.028l0.047,-0.027l0.05,-0.025l0.051,-0.023l0.03,-0.011l0.028,-0.009l0.03,-0.009l0.031,-0.009l0.031,-0.007l0.033,-0.007l0.033,-0.006l0.036,-0.005l0.071,-0.009l0.078,-0.006l0.085,-0.003l0.089,-0.001l0.019,0.001Zm-0.104,0.2l-0.077,0.003l-0.071,0.005l-0.064,0.008l-0.029,0.004l-0.028,0.005l-0.027,0.006l-0.026,0.006l-0.025,0.007l-0.023,0.007l-0.023,0.008l-0.022,0.008l-0.042,0.018l-0.039,0.02l-0.038,0.022l-0.038,0.024l-0.038,0.026l-0.038,0.027l-0.083,0.061l-6.812,5.348l-0.031,0.027l-0.03,0.027l-0.029,0.027l-0.028,0.027l-0.027,0.028l-0.025,0.027l-0.025,0.028l-0.024,0.027l-0.022,0.028l-0.021,0.028l-0.021,0.028l-0.019,0.028l-0.018,0.028l-0.018,0.028l-0.016,0.028l-0.016,0.028l-0.014,0.028l-0.013,0.028l-0.013,0.028l-0.011,0.029l-0.011,0.028l-0.01,0.028l-0.009,0.028l-0.007,0.028l-0.007,0.029l-0.007,0.028l-0.005,0.028l-0.004,0.028l-0.004,0.028l-0.003,0.028l-0.002,0.027l-0.001,0.028l0,0.028l0,0.027l0.001,0.028l0.002,0.027l0.003,0.027l0.004,0.027l0.009,0.054l0.011,0.053l0.015,0.052l0.017,0.052l0.02,0.051l0.023,0.05l0.024,0.049l0.027,0.049l0.03,0.047l0.031,0.046l0.033,0.045l0.036,0.043l0.037,0.043l0.039,0.041l0.04,0.04l0.043,0.038l0.043,0.037l0.046,0.035l0.046,0.034l0.048,0.031l0.049,0.031l0.05,0.028l0.051,0.026l0.052,0.025l0.052,0.022l0.054,0.021l0.054,0.018l0.054,0.016l0.055,0.014l0.056,0.012l0.055,0.009l0.056,0.007l0.056,0.004l0.056,0.002l0.056,-0.001l0.055,-0.003l0.056,-0.006l0.055,-0.009l0.055,-0.012l0.054,-0.015l0.027,-0.008l0.027,-0.009l0.026,-0.01l0.026,-0.011l0.027,-0.012l0.026,-0.012l0.025,-0.013l0.026,-0.014l0.025,-0.014l0.025,-0.016l5.212,-4.089l0.049,-0.037l0.051,-0.035l0.051,-0.032l0.053,-0.029l0.054,-0.028l0.054,-0.025l0.055,-0.022l0.056,-0.021l0.056,-0.017l0.057,-0.016l0.058,-0.013l0.057,-0.01l0.059,-0.008l0.058,-0.006l0.058,-0.003l0.059,-0.001l0.059,0.001l0.058,0.004l0.058,0.006l0.058,0.009l0.058,0.011l0.057,0.014l0.057,0.015l0.056,0.019l0.056,0.02l0.055,0.024l0.054,0.025l0.053,0.028l0.053,0.03l0.051,0.033l0.05,0.035l0.049,0.037l5.088,4.07l0.033,0.024l0.034,0.023l0.032,0.022l0.033,0.021l0.033,0.02l0.033,0.018l0.032,0.018l0.033,0.016l0.032,0.015l0.032,0.015l0.032,0.013l0.031,0.012l0.032,0.011l0.031,0.01l0.032,0.009l0.031,0.009l0.031,0.007l0.03,0.006l0.031,0.005l0.03,0.004l0.03,0.004l0.03,0.002l0.029,0.002l0.03,0.001l0.029,0l0.029,-0.001l0.029,-0.002l0.028,-0.003l0.028,-0.004l0.028,-0.004l0.028,-0.005l0.027,-0.006l0.027,-0.006l0.027,-0.008l0.027,-0.008l0.026,-0.009l0.026,-0.009l0.026,-0.011l0.05,-0.022l0.049,-0.025l0.048,-0.028l0.047,-0.03l0.045,-0.033l0.043,-0.035l0.043,-0.037l0.04,-0.039l0.04,-0.04l0.037,-0.043l0.036,-0.044l0.034,-0.046l0.033,-0.048l0.031,-0.049l0.029,-0.05l0.027,-0.051l0.025,-0.053l0.023,-0.053l0.021,-0.055l0.02,-0.055l0.017,-0.056l0.015,-0.056l0.013,-0.057l0.01,-0.057l0.009,-0.057l0.006,-0.058l0.004,-0.058l0.002,-0.057l-0.001,-0.058l-0.004,-0.057l-0.005,-0.057l-0.009,-0.056l-0.011,-0.056l-0.013,-0.055l-0.017,-0.055l-0.018,-0.053l-0.022,-0.052l-0.012,-0.026l-0.013,-0.026l-0.013,-0.025l-0.014,-0.025l-0.015,-0.025l-0.015,-0.024l-0.016,-0.024l-0.017,-0.024l-0.018,-0.023l-0.018,-0.023l-0.019,-0.022l-0.02,-0.022l-0.021,-0.021l-0.021,-0.022l-0.022,-0.02l-0.023,-0.02l-6.742,-5.393l-0.041,-0.029l-0.042,-0.028l-0.043,-0.026l-0.043,-0.025l-0.044,-0.023l-0.045,-0.021l-0.045,-0.02l-0.046,-0.018l-0.046,-0.016l-0.047,-0.015l-0.048,-0.013l-0.048,-0.011l-0.049,-0.009l-0.049,-0.008l-0.05,-0.006l-0.049,-0.005l-0.087,0.001Z" style="fill:#64b2bd;fill-opacity:0.824478;"/></g></svg>