<?xml version="1.0" encoding="UTF-8" standalone="no"?>
<!DOCTYPE svg PUBLIC "-//W3C//DTD SVG 1.1//EN" "http://www.w3.org/Graphics/SVG/1.1/DTD/svg11.dtd">
<svg width="100%" height="100%" viewBox="0 0 50 50" version="1.1" xmlns="http://www.w3.org/2000/svg" xmlns:xlink="http://www.w3.org/1999/xlink" xml:space="preserve" xmlns:serif="http://www.serif.com/" style="fill-rule:evenodd;clip-rule:evenodd;stroke-linejoin:round;stroke-miterlimit:1.41421;">
    <path d="M25,0C38.798,0 50,11.202 50,25C50,38.798 38.798,50 25,50C11.202,50 0,38.798 0,25C0,11.202 11.202,0 25,0ZM25.228,4.09C34.627,4.18 43.569,11.224 45.614,20.607C47.698,30.171 42.14,40.815 33.029,44.541C22.415,48.88 8.627,42.874 5.035,31.335C1.224,19.093 10.817,4.401 24.686,4.094C24.867,4.091 25.047,4.09 25.228,4.09ZM24.969,6.09C16.435,6.171 8.374,12.549 6.525,21.033C4.642,29.674 9.668,39.318 17.912,42.689C27.613,46.656 40.186,41.001 43.308,30.517C46.57,19.56 38.069,6.531 25.704,6.099C25.459,6.092 25.214,6.089 24.969,6.09ZM28.718,21.282L28.718,9.954L21.282,9.954L21.282,21.282L9.954,21.282L9.954,28.718L21.282,28.718L21.282,40.046L28.718,40.046L28.718,28.718L40.046,28.718L40.046,21.282L28.718,21.282Z" style="fill:url(#_Linear1);"/>
    <defs>
        <linearGradient id="_Linear1" x1="0" y1="0" x2="1" y2="0" gradientUnits="userSpaceOnUse" gradientTransform="matrix(28.7184,28.7184,-28.7184,28.7184,0,-1.11022e-14)"><stop offset="0" style="stop-color:rgb(223,251,255);stop-opacity:1"/><stop offset="1" style="stop-color:rgb(14,88,150);stop-opacity:1"/></linearGradient>
    </defs>
</svg>
