<?xml version="1.0" encoding="UTF-8" standalone="no"?>
<!DOCTYPE svg PUBLIC "-//W3C//DTD SVG 1.1//EN" "http://www.w3.org/Graphics/SVG/1.1/DTD/svg11.dtd">
<svg width="100%" height="100%" viewBox="0 0 20 20" version="1.1" xmlns="http://www.w3.org/2000/svg" xmlns:xlink="http://www.w3.org/1999/xlink" xml:space="preserve" xmlns:serif="http://www.serif.com/" style="fill-rule:evenodd;clip-rule:evenodd;stroke-linejoin:round;stroke-miterlimit:1.41421;">
    <path d="M10,0.22C15.398,0.22 19.78,4.602 19.78,10C19.78,15.398 15.398,19.78 10,19.78C4.602,19.78 0.22,15.398 0.22,10C0.22,4.602 4.602,0.22 10,0.22ZM17.18,9.14L10.722,15.216C10.474,15.434 10.368,15.555 9.859,15.552C9.577,15.529 9.312,15.412 9.084,15.207L2.814,9.198C2.784,9.461 2.769,9.729 2.769,10C2.769,13.991 6.009,17.231 10,17.231C13.991,17.231 17.231,13.991 17.231,10C17.231,9.709 17.213,9.422 17.18,9.14ZM16.109,6.132C14.826,4.112 12.569,2.769 10,2.769C7.418,2.769 5.151,4.125 3.871,6.164L8.94,11.021C9.486,11.545 10.347,11.549 10.899,11.031L16.109,6.132Z" style="fill:url(#_Linear1);"/>
    <defs>
        <linearGradient id="_Linear1" x1="0" y1="0" x2="1" y2="0" gradientUnits="userSpaceOnUse" gradientTransform="matrix(12.7566,14.4338,-14.4338,12.7566,-1.92708,-2.28023)"><stop offset="0" style="stop-color:rgb(223,251,255);stop-opacity:1"/><stop offset="1" style="stop-color:rgb(14,88,150);stop-opacity:1"/></linearGradient>
    </defs>
</svg>
