<?xml version="1.0" encoding="UTF-8" standalone="no"?>
<!DOCTYPE svg PUBLIC "-//W3C//DTD SVG 1.1//EN" "http://www.w3.org/Graphics/SVG/1.1/DTD/svg11.dtd">
<svg width="100%" height="100%" viewBox="0 0 20 20" version="1.1" xmlns="http://www.w3.org/2000/svg" xmlns:xlink="http://www.w3.org/1999/xlink" xml:space="preserve" xmlns:serif="http://www.serif.com/" style="fill-rule:evenodd;clip-rule:evenodd;stroke-linejoin:round;stroke-miterlimit:1.41421;">
    <g transform="matrix(0.92239,0,0,0.92239,0.9168,1.5522)">
        <path d="M9.833,20C9.498,19.978 9.184,19.87 8.913,19.68L0.472,13.357C-0.776,12.358 0.65,9.823 2.427,11.067C2.427,11.067 7.099,14.567 9.054,16.032C9.556,16.408 10.245,16.411 10.75,16.04C12.74,14.577 17.535,11.054 17.535,11.054C18.864,10.26 21.084,12.081 19.385,13.417L10.856,19.688C10.563,19.89 10.437,20.003 9.833,20Z" style="fill:url(#_Linear1);"/>
    </g>
    <g transform="matrix(0.92239,0,0,0.92239,0.9168,-2.22045e-16)">
        <path d="M10.167,0C10.502,0.022 10.816,0.13 11.087,0.32L19.528,6.643C20.776,7.642 19.35,10.177 17.573,8.933C17.573,8.933 12.901,5.433 10.946,3.968C10.444,3.592 9.755,3.589 9.25,3.96C7.26,5.423 2.465,8.946 2.465,8.946C1.136,9.74 -1.084,7.919 0.615,6.583L9.144,0.312C9.437,0.11 9.563,-0.003 10.167,0Z" style="fill:url(#_Linear2);"/>
    </g>
    <defs>
        <linearGradient id="_Linear1" x1="0" y1="0" x2="1" y2="0" gradientUnits="userSpaceOnUse" gradientTransform="matrix(9.99018,11.1498,-11.1498,9.99018,-0.861066,-1.14975)"><stop offset="0" style="stop-color:rgb(223,251,255);stop-opacity:1"/><stop offset="1" style="stop-color:rgb(14,88,150);stop-opacity:1"/></linearGradient>
        <linearGradient id="_Linear2" x1="0" y1="0" x2="1" y2="0" gradientUnits="userSpaceOnUse" gradientTransform="matrix(9.99018,11.1498,-11.1498,9.99018,-0.861066,-1.14975)"><stop offset="0" style="stop-color:rgb(223,251,255);stop-opacity:1"/><stop offset="1" style="stop-color:rgb(14,88,150);stop-opacity:1"/></linearGradient>
    </defs>
</svg>
